HIERARCHY
ROOT Hips
{
	OFFSET 0.000000 100.481300 0.000000
	CHANNELS 6 Xposition Yposition Zposition Xrotation Yrotation Zrotation
	JOINT Spine
	{
		OFFSET -0.279200 12.230698 -2.892100
		CHANNELS 3 Xrotation Yrotation Zrotation
		JOINT Spine1
		{
			OFFSET -0.325700 14.269203 -3.374200
			CHANNELS 3 Xrotation Yrotation Zrotation
			JOINT Spine2
			{
				OFFSET -0.372300 16.307602 -0.352600
				CHANNELS 3 Xrotation Yrotation Zrotation
				JOINT Neck
				{
					OFFSET -0.418800 17.814194 8.416900
					CHANNELS 3 Xrotation Yrotation Zrotation
					JOINT Head
					{
						OFFSET 0.000000 7.031097 3.806800
						CHANNELS 3 Xrotation Yrotation Zrotation
						JOINT HeadTop_End
						{
							OFFSET 0.000000 24.646606 12.978600
							CHANNELS 3 Xrotation Yrotation Zrotation
							End Site
							{
								OFFSET 0.000000 27.854965 0.000000
							}
						}
					}
				}
				JOINT LeftShoulder
				{
					OFFSET 16.952999 14.495407 -7.737500
					CHANNELS 3 Xrotation Yrotation Zrotation
					JOINT LeftArm
					{
						OFFSET 9.308998 -2.777710 0.208600
						CHANNELS 3 Xrotation Yrotation Zrotation
						JOINT LeftForeArm
						{
							OFFSET 29.972298 0.000000 0.000000
							CHANNELS 3 Xrotation Yrotation Zrotation
							JOINT LeftHand
							{
								OFFSET 26.026505 0.000000 0.000000
								CHANNELS 3 Xrotation Yrotation Zrotation
								JOINT LeftHandThumb1
								{
									OFFSET 12.240501 -7.147949 9.207150
									CHANNELS 3 Xrotation Yrotation Zrotation
									JOINT LeftHandThumb2
									{
										OFFSET 4.138618 -2.389435 2.389433
										CHANNELS 3 Xrotation Yrotation Zrotation
										JOINT LeftHandThumb3
										{
											OFFSET 2.726913 -1.574387 1.574386
											CHANNELS 3 Xrotation Yrotation Zrotation
											JOINT LeftHandThumb4
											{
												OFFSET 3.941010 -2.275345 2.275342
												CHANNELS 3 Xrotation Yrotation Zrotation
												End Site
												{
													OFFSET -0.005798 5.087799 0.009903
												}
											}
										}
									}
								}
								JOINT LeftHandIndex1
								{
									OFFSET 24.424698 -1.985611 5.953459
									CHANNELS 3 Xrotation Yrotation Zrotation
									JOINT LeftHandIndex2
									{
										OFFSET 6.426697 0.000000 0.000000
										CHANNELS 3 Xrotation Yrotation Zrotation
										JOINT LeftHandIndex3
										{
											OFFSET 5.337898 0.000000 0.000000
											CHANNELS 3 Xrotation Yrotation Zrotation
											JOINT LeftHandIndex4
											{
												OFFSET 4.409401 0.000000 0.000000
												CHANNELS 3 Xrotation Yrotation Zrotation
												End Site
												{
													OFFSET 0.000000 4.409363 0.014373
												}
											}
										}
									}
								}
								JOINT LeftHandMiddle1
								{
									OFFSET 23.810104 0.000000 0.000000
									CHANNELS 3 Xrotation Yrotation Zrotation
									JOINT LeftHandMiddle2
									{
										OFFSET 7.176498 0.000000 0.000000
										CHANNELS 3 Xrotation Yrotation Zrotation
										JOINT LeftHandMiddle3
										{
											OFFSET 6.774902 0.000000 0.000000
											CHANNELS 3 Xrotation Yrotation Zrotation
											JOINT LeftHandMiddle4
											{
												OFFSET 5.403328 0.000000 0.000000
												CHANNELS 3 Xrotation Yrotation Zrotation
												End Site
												{
													OFFSET -0.027702 5.403244 0.017414
												}
											}
										}
									}
								}
								JOINT LeftHandRing1
								{
									OFFSET 22.908401 -0.839279 -6.020567
									CHANNELS 3 Xrotation Yrotation Zrotation
									JOINT LeftHandRing2
									{
										OFFSET 6.337502 0.000000 0.000000
										CHANNELS 3 Xrotation Yrotation Zrotation
										JOINT LeftHandRing3
										{
											OFFSET 5.779297 0.000000 0.000000
											CHANNELS 3 Xrotation Yrotation Zrotation
											JOINT LeftHandRing4
											{
												OFFSET 4.965698 0.000000 0.000000
												CHANNELS 3 Xrotation Yrotation Zrotation
												End Site
												{
													OFFSET 0.000000 4.965668 0.016186
												}
											}
										}
									}
								}
								JOINT LeftHandPinky1
								{
									OFFSET 20.037003 -1.530319 -10.950146
									CHANNELS 3 Xrotation Yrotation Zrotation
									JOINT LeftHandPinky2
									{
										OFFSET 5.254700 0.000000 0.000000
										CHANNELS 3 Xrotation Yrotation Zrotation
										JOINT LeftHandPinky3
										{
											OFFSET 4.810204 0.000000 0.000000
											CHANNELS 3 Xrotation Yrotation Zrotation
											JOINT LeftHandPinky4
											{
												OFFSET 3.647202 0.000000 0.000000
												CHANNELS 3 Xrotation Yrotation Zrotation
												End Site
												{
													OFFSET 0.000000 3.647186 0.011889
												}
											}
										}
									}
								}
							}
						}
					}
				}
				JOINT RightShoulder
				{
					OFFSET -15.141001 14.495407 -7.737500
					CHANNELS 3 Xrotation Yrotation Zrotation
					JOINT RightArm
					{
						OFFSET -9.308998 -2.777710 0.208500
						CHANNELS 3 Xrotation Yrotation Zrotation
						JOINT RightForeArm
						{
							OFFSET -29.972300 0.000000 0.000000
							CHANNELS 3 Xrotation Yrotation Zrotation
							JOINT RightHand
							{
								OFFSET -26.026505 0.000000 0.000000
								CHANNELS 3 Xrotation Yrotation Zrotation
								JOINT RightHandThumb1
								{
									OFFSET -12.240601 -7.148026 9.207092
									CHANNELS 3 Xrotation Yrotation Zrotation
									JOINT RightHandThumb2
									{
										OFFSET -4.138618 -2.389435 2.389433
										CHANNELS 3 Xrotation Yrotation Zrotation
										JOINT RightHandThumb3
										{
											OFFSET -2.726974 -1.574417 1.574421
											CHANNELS 3 Xrotation Yrotation Zrotation
											JOINT RightHandThumb4
											{
												OFFSET -3.941010 -2.275345 2.275343
												CHANNELS 3 Xrotation Yrotation Zrotation
												End Site
												{
													OFFSET 0.005814 5.087799 0.009927
												}
											}
										}
									}
								}
								JOINT RightHandIndex1
								{
									OFFSET -24.424698 -1.985657 5.953444
									CHANNELS 3 Xrotation Yrotation Zrotation
									JOINT RightHandIndex2
									{
										OFFSET -6.426697 0.000000 0.000000
										CHANNELS 3 Xrotation Yrotation Zrotation
										JOINT RightHandIndex3
										{
											OFFSET -5.337898 0.000000 0.000000
											CHANNELS 3 Xrotation Yrotation Zrotation
											JOINT RightHandIndex4
											{
												OFFSET -4.409401 0.000000 0.000000
												CHANNELS 3 Xrotation Yrotation Zrotation
												End Site
												{
													OFFSET 0.000000 4.409363 0.014408
												}
											}
										}
									}
								}
								JOINT RightHandMiddle1
								{
									OFFSET -23.810097 0.000000 0.000000
									CHANNELS 3 Xrotation Yrotation Zrotation
									JOINT RightHandMiddle2
									{
										OFFSET -7.176498 0.000000 0.000000
										CHANNELS 3 Xrotation Yrotation Zrotation
										JOINT RightHandMiddle3
										{
											OFFSET -6.774902 0.000000 0.000000
											CHANNELS 3 Xrotation Yrotation Zrotation
											JOINT RightHandMiddle4
											{
												OFFSET -5.403328 0.000000 0.000000
												CHANNELS 3 Xrotation Yrotation Zrotation
												End Site
												{
													OFFSET 0.027702 5.403244 0.017457
												}
											}
										}
									}
								}
								JOINT RightHandRing1
								{
									OFFSET -22.908302 -0.839325 -6.020576
									CHANNELS 3 Xrotation Yrotation Zrotation
									JOINT RightHandRing2
									{
										OFFSET -6.337502 0.000000 0.000000
										CHANNELS 3 Xrotation Yrotation Zrotation
										JOINT RightHandRing3
										{
											OFFSET -5.779297 0.000000 0.000000
											CHANNELS 3 Xrotation Yrotation Zrotation
											JOINT RightHandRing4
											{
												OFFSET -4.965698 0.000000 0.000000
												CHANNELS 3 Xrotation Yrotation Zrotation
												End Site
												{
													OFFSET 0.000000 4.965668 0.016226
												}
											}
										}
									}
								}
								JOINT RightHandPinky1
								{
									OFFSET -20.037003 -1.530334 -10.950259
									CHANNELS 3 Xrotation Yrotation Zrotation
									JOINT RightHandPinky2
									{
										OFFSET -5.254700 0.000000 0.000000
										CHANNELS 3 Xrotation Yrotation Zrotation
										JOINT RightHandPinky3
										{
											OFFSET -4.810204 0.000000 0.000000
											CHANNELS 3 Xrotation Yrotation Zrotation
											JOINT RightHandPinky4
											{
												OFFSET -3.647202 0.000000 0.000000
												CHANNELS 3 Xrotation Yrotation Zrotation
												End Site
												{
													OFFSET 0.000000 3.647186 0.011917
												}
											}
										}
									}
								}
							}
						}
					}
				}
			}
		}
	}
	JOINT LeftUpLeg
	{
		OFFSET 15.427100 -6.655098 0.678600
		CHANNELS 3 Xrotation Yrotation Zrotation
		JOINT LeftLeg
		{
			OFFSET 4.081073 -39.591068 13.024000
			CHANNELS 3 Xrotation Yrotation Zrotation
			JOINT LeftFoot
			{
				OFFSET -4.081074 -37.707932 -15.979700
				CHANNELS 3 Xrotation Yrotation Zrotation
				JOINT LeftToeBase
				{
					OFFSET 5.346399 -15.068900 20.645000
					CHANNELS 3 Xrotation Yrotation Zrotation
					JOINT LeftToe_End
					{
						OFFSET 2.754700 0.931300 11.300900
						CHANNELS 3 Xrotation Yrotation Zrotation
						End Site
						{
							OFFSET 0.000000 11.669021 0.000000
						}
					}
				}
			}
		}
	}
	JOINT RightUpLeg
	{
		OFFSET -15.569500 -6.655098 0.678600
		CHANNELS 3 Xrotation Yrotation Zrotation
		JOINT RightLeg
		{
			OFFSET -4.081825 -39.591045 13.023800
			CHANNELS 3 Xrotation Yrotation Zrotation
			JOINT RightFoot
			{
				OFFSET 4.081824 -37.707954 -15.979600
				CHANNELS 3 Xrotation Yrotation Zrotation
				JOINT RightToeBase
				{
					OFFSET -5.346400 -15.068900 20.645000
					CHANNELS 3 Xrotation Yrotation Zrotation
					JOINT RightToe_End
					{
						OFFSET -2.754700 0.931300 11.300900
						CHANNELS 3 Xrotation Yrotation Zrotation
						End Site
						{
							OFFSET 0.000000 11.669021 0.000000
						}
					}
				}
			}
		}
	}
}
MOTION
Frames: 4
Frame Time: 0.033333
3.977419 83.474701 19.850813 -16.444877 -0.882959 4.073736 1.537273 3.694837 -7.040596 3.387164 0.192876 -0.504016 3.738389 0.050162 -0.599014 -2.990915 3.020383 10.114078 10.860754 -9.005128 2.084382 0.000000 -0.000000 0.000000 -1.402949 0.594992 -4.820628 -40.301200 -35.012578 -59.676859 -0.000052 -80.010475 -0.000066 29.960300 -19.806131 -3.704558 -6.141225 -11.690799 -6.761699 9.914121 42.595519 3.409850 -0.422797 8.108089 27.509118 -0.000002 -0.000001 0.000001 0.255321 3.378219 -45.814341 5.654092 5.847753 -88.067435 2.162137 4.544810 -50.866382 -0.000001 -0.000000 0.000004 -0.461473 3.841596 -39.722690 6.450757 5.820353 -95.892871 2.182885 4.561567 -51.127733 -0.000002 0.000000 0.000004 0.469724 4.966831 -39.799444 8.181042 5.368620 -113.502991 3.200492 5.218119 -63.022968 -0.000001 -0.000005 -0.000001 -3.762427 9.063685 -45.253825 5.342528 5.829013 -85.005276 8.716838 5.103333 -119.369181 -0.000002 0.000002 -0.000003 2.606486 8.830773 1.181920 -8.474684 -10.888182 51.538589 0.000063 102.464879 -0.000095 -15.435966 8.922309 -6.885251 -7.341098 13.749657 7.412319 9.855791 -44.489089 -3.903254 -0.115784 -14.513090 -28.973884 0.000001 -0.000001 -0.000001 -0.124378 -2.384787 45.108864 4.500582 -4.654545 88.071157 1.723227 -3.618374 50.920095 -0.000001 0.000000 -0.000000 -0.761627 -2.932910 39.031068 5.133887 -4.632769 95.881649 1.739749 -3.631703 51.181370 -0.000000 0.000001 -0.000001 0.154757 -4.068814 39.122685 6.509729 -4.273602 113.462877 2.549586 -4.153920 63.067344 0.000002 0.000003 -0.000002 -4.198870 -8.025511 44.637779 4.252916 -4.639631 85.014811 6.935962 -4.062626 119.322298 0.000003 -0.000000 -0.000001 -12.998945 12.317705 -4.429278 42.657731 -4.799412 2.394395 -11.196897 -29.240760 7.321871 1.235297 0.000001 -0.000000 0.000000 0.000001 0.000000 -7.933337 -18.662447 -26.244510 63.086475 -6.953343 -8.992225 6.638492 -29.985343 5.000344 -3.374940 -0.224664 5.014624 0.000001 0.000000 -0.000002 
2.922827 82.935059 18.422644 -13.380329 -4.386806 3.690209 1.155422 5.762136 -7.111610 3.362754 0.698987 -0.738439 3.453174 0.619009 -0.748275 -2.972128 3.189926 9.491949 9.991902 -7.593858 1.836491 -0.000000 -0.000000 0.000000 -1.434859 2.000247 -5.299298 -44.487874 -34.636207 -62.178764 -0.000115 -80.633464 -0.000112 30.044271 -18.954875 -5.262862 -6.141224 -11.690798 -6.761692 9.914126 42.595525 3.409851 -0.422798 8.108090 27.509120 -0.000002 0.000000 0.000001 0.255319 3.378219 -45.814334 5.654092 5.847754 -88.067435 2.162137 4.544810 -50.866386 0.000003 -0.000001 -0.000001 -0.461477 3.841594 -39.722686 6.450758 5.820353 -95.892871 2.182886 4.561567 -51.127736 -0.000001 -0.000002 0.000001 0.469720 4.966829 -39.799444 8.181042 5.368623 -113.502998 3.200491 5.218116 -63.022968 -0.000000 0.000001 0.000000 -3.762430 9.063684 -45.253821 5.342527 5.829017 -85.005276 8.716837 5.103333 -119.369181 -0.000000 -0.000000 -0.000005 3.187845 10.602508 -0.228796 -9.225776 -13.268550 53.753534 0.000044 107.747300 -0.000035 -16.621679 7.826490 -6.512368 -7.341096 13.749655 7.412319 9.855793 -44.489089 -3.903254 -0.115787 -14.513088 -28.973881 0.000001 -0.000003 -0.000001 -0.124375 -2.384792 45.108864 4.500583 -4.654541 88.071164 1.723225 -3.618378 50.920105 0.000001 0.000000 -0.000003 -0.761623 -2.932912 39.031068 5.133890 -4.632764 95.881656 1.739749 -3.631699 51.181374 -0.000001 0.000001 0.000001 0.154757 -4.068818 39.122685 6.509735 -4.273600 113.462877 2.549583 -4.153920 63.067344 0.000001 -0.000001 -0.000000 -4.198872 -8.025509 44.637779 4.252912 -4.639628 85.014818 6.935958 -4.062624 119.322298 -0.000006 0.000000 -0.000002 -17.674317 12.207522 -2.436217 43.405507 -5.037119 1.179002 -10.987988 -27.145364 6.745415 1.185375 0.000009 -0.000003 -0.000000 0.000001 -0.000000 -1.998538 -19.484744 -25.373106 55.147169 -7.242052 -8.694622 -0.697780 -31.032814 7.039050 -7.506394 -0.303405 5.711195 0.000002 0.000002 0.000001 
1.609684 81.331604 16.896872 -10.971390 -7.922448 2.939051 1.192588 7.144156 -6.894649 3.084651 0.970664 -0.877518 3.084821 0.924801 -0.850071 -2.977388 3.678305 8.786438 9.020395 -5.351045 1.382794 -0.000000 0.000000 -0.000000 -1.414993 3.576754 -5.864631 -47.324222 -33.364805 -63.180329 0.000654 -82.461775 0.000677 29.169894 -18.711640 -7.021887 -6.141223 -11.690798 -6.761696 9.914124 42.595519 3.409854 -0.422802 8.108089 27.509118 -0.000002 -0.000001 0.000002 0.255320 3.378217 -45.814334 5.654092 5.847751 -88.067435 2.162141 4.544810 -50.866376 -0.000002 -0.000000 0.000000 -0.461471 3.841596 -39.722690 6.450758 5.820349 -95.892871 2.182884 4.561567 -51.127736 -0.000001 -0.000001 0.000001 0.469724 4.966829 -39.799444 8.181043 5.368620 -113.502998 3.200487 5.218116 -63.022968 -0.000000 0.000002 -0.000001 -3.762428 9.063681 -45.253825 5.342527 5.829012 -85.005276 8.716835 5.103333 -119.369181 0.000000 0.000000 -0.000003 3.572861 12.053726 -1.647148 -10.656947 -12.944582 56.503027 0.000101 111.854600 -0.000082 -17.560061 7.004154 -5.282799 -7.341095 13.749658 7.412319 9.855791 -44.489089 -3.903250 -0.115789 -14.513088 -28.973881 0.000003 -0.000002 -0.000005 -0.124378 -2.384790 45.108857 4.500583 -4.654541 88.071164 1.723227 -3.618376 50.920098 0.000001 -0.000001 -0.000003 -0.761624 -2.932911 39.031068 5.133884 -4.632768 95.881656 1.739749 -3.631703 51.181370 -0.000001 -0.000000 -0.000001 0.154756 -4.068817 39.122685 6.509730 -4.273599 113.462877 2.549588 -4.153926 63.067337 -0.000002 -0.000001 0.000001 -4.198874 -8.025514 44.637779 4.252915 -4.639628 85.014811 6.935958 -4.062621 119.322298 -0.000002 0.000001 -0.000001 -23.201946 12.149443 0.755304 46.536647 -5.453675 0.389395 -11.669477 -24.622089 5.768213 0.556149 -0.000005 0.000002 0.000000 -0.000001 -0.000000 3.163018 -20.377219 -24.359089 49.565607 -6.222947 -8.584785 -8.501925 -32.420996 13.238905 -9.546314 -0.050540 2.363071 -0.000001 0.000000 -0.000001 
0.348444 79.218422 15.228453 -8.768613 -11.384081 2.042957 1.742242 7.959170 -6.172728 2.655105 1.074113 -1.108680 2.658469 1.039023 -1.075143 -3.033700 4.425435 8.072239 7.821431 -2.479650 0.858165 -0.000000 -0.000000 0.000000 -1.359422 4.923421 -6.375638 -49.137487 -31.795531 -62.990081 0.001349 -84.916682 0.001369 27.673237 -18.835973 -8.269253 -6.141225 -11.690803 -6.761691 9.914122 42.595519 3.409836 -0.422796 8.108089 27.509125 0.000002 0.000001 0.000002 0.255320 3.378220 -45.814334 5.654091 5.847755 -88.067435 2.162136 4.544810 -50.866376 0.000001 0.000001 -0.000001 -0.461477 3.841593 -39.722686 6.450758 5.820356 -95.892871 2.182893 4.561567 -51.127736 -0.000000 0.000002 -0.000001 0.469724 4.966830 -39.799444 8.181043 5.368625 -113.502998 3.200487 5.218117 -63.022961 -0.000001 -0.000002 -0.000000 -3.762429 9.063685 -45.253821 5.342529 5.829009 -85.005276 8.716838 5.103333 -119.369181 -0.000001 0.000002 -0.000002 3.676310 13.036157 -3.032010 -12.388689 -10.670101 59.476208 -0.000007 114.702194 -0.000006 -17.989229 6.826886 -3.818580 -7.341097 13.749653 7.412320 9.855789 -44.489089 -3.903248 -0.115786 -14.513090 -28.973874 0.000002 0.000001 0.000003 -0.124379 -2.384788 45.108857 4.500582 -4.654544 88.071164 1.723224 -3.618377 50.920098 0.000004 -0.000001 -0.000004 -0.761626 -2.932907 39.031068 5.133887 -4.632765 95.881656 1.739749 -3.631699 51.181377 -0.000001 -0.000001 0.000000 0.154756 -4.068812 39.122678 6.509732 -4.273605 113.462877 2.549585 -4.153925 63.067337 0.000001 -0.000003 -0.000000 -4.198872 -8.025511 44.637776 4.252911 -4.639630 85.014818 6.935959 -4.062620 119.322285 0.000000 0.000001 -0.000000 -30.595894 11.474648 5.210575 50.711214 -6.318262 -0.249352 -8.678880 -23.563635 2.707464 -2.604264 -0.000004 0.000001 -0.000000 -0.000001 0.000000 5.522688 -21.156221 -23.914601 45.985154 -5.164378 -8.283576 -16.120932 -32.757765 20.246771 -9.637236 -0.000025 0.000016 -0.000000 0.000003 -0.000002 
